<?xml version="1.0" encoding="UTF-8" standalone="no"?>
<svg width="124px" height="43px" viewBox="0 0 124 43" version="1.1" xmlns="http://www.w3.org/2000/svg" xmlns:xlink="http://www.w3.org/1999/xlink">
    <!-- Generator: sketchtool 42 (36781) - http://www.bohemiancoding.com/sketch -->
    <title>50F9480F-5A97-41AA-87F4-CD9CEDE134B2</title>
    <desc>Created with sketchtool.</desc>
    <defs></defs>
    <g id="Pages" stroke="none" stroke-width="1" fill="none" fill-rule="evenodd">
        <g id="Home" transform="translate(-172.000000, -779.000000)" fill="#78909C">
            <path d="M186.345563,779 L193,779 L193,810.084316 C189.586368,810.738376 187.080082,811 184.358041,811 C176.234566,811 172,807.29394 172,800.185361 C172,793.33925 176.494086,788.891359 183.450694,788.891359 C184.530869,788.891359 185.351802,788.978849 186.345842,789.23991 L186.345842,779 L186.345563,779 Z M186.345563,794.646808 L186.345563,805.418686 C185.395009,805.548936 184.789832,805.59254 184.055592,805.59254 C180.641959,805.59254 178.783779,803.630359 178.783779,800.053986 C178.783779,796.391531 180.728373,794.298257 184.098799,794.298257 C184.919732,794.298257 185.567837,794.385465 186.345563,794.646808 Z M204,789.326103 L204,804.881452 C204,810.240277 203.616426,812.81077 202.465704,815.033284 C201.399945,817.168382 199.993232,818.518418 197.095116,820 L191,817.037117 C193.89839,815.642951 195.304829,814.423899 196.199835,812.549364 C197.137736,810.632667 197.436346,808.409872 197.436346,802.571522 L197.436346,789.326103 L204,789.326103 Z M197.436346,779 L204,779 L204,785.884537 L197.436346,785.884537 L197.436346,779 L197.436346,779 Z M208.415407,790.988061 C211.42311,789.604783 214.297575,789 217.43766,789 C220.931526,789 223.231098,789.907593 224.248502,791.679839 C224.82311,792.673591 225,793.970152 225,796.736987 L225,810.265003 C221.948074,810.697748 218.100713,811 215.270471,811 C209.565478,811 207,809.0546 207,804.733007 C207,800.06427 210.405421,797.903613 218.764337,797.211556 L218.764337,795.741841 C218.764337,794.531996 218.145221,794.100087 216.420257,794.100087 C213.899572,794.100087 211.069044,794.791308 208.415121,796.131367 L208.415121,790.988061 L208.415407,790.988061 Z M219.073894,801.577483 C214.562625,802.010228 213.103281,802.701449 213.103281,804.430197 C213.103281,805.726759 213.943795,806.3321 215.801141,806.3321 C216.818545,806.3321 217.746933,806.245383 219.073894,806.029848 L219.073894,801.577483 Z M228,790.537091 C232.008526,789.482713 235.31254,789 238.660604,789 C242.140817,789 244.651936,789.789792 246.150195,791.327449 C247.559787,792.775872 248,794.356588 248,797.738698 L248,811 L241.216057,811 L241.216057,798.001867 C241.216057,795.411249 240.335062,794.444689 237.912327,794.444689 C236.987282,794.444689 236.150337,794.53279 234.784227,794.927969 L234.784227,810.999717 L228.000284,810.999717 L228.000284,790.537091 L228,790.537091 Z M250.521307,814.492294 C252.865229,815.714152 255.20859,816.281573 257.682139,816.281573 C262.065093,816.281573 263.931384,814.492294 263.931384,810.214245 L263.931384,810.082739 C262.629516,810.737738 261.327368,810.999906 259.591825,810.999906 C253.73286,810.999906 250,807.114688 250,800.960346 C250,793.321134 255.51208,789 265.276367,789 C268.141036,789 270.788447,789.305253 274,789.959407 L271.711513,794.809102 C269.932014,794.459638 271.569007,794.762075 270.224304,794.631131 L270.224304,795.329496 L270.310815,798.166322 L270.353931,801.833302 C270.397326,802.749343 270.397326,803.66651 270.441002,804.582833 L270.441002,806.416604 C270.441002,812.178679 269.96365,814.885125 268.531596,817.110882 C266.448328,820.385031 262.846214,822 257.725255,822 C255.121239,822 252.864949,821.606888 250.521027,820.690284 L250.521027,814.492294 L250.521307,814.492294 Z M263.801477,794.412611 L263.584779,794.412611 L263.107147,794.412611 C261.80556,794.368963 260.286714,794.717864 259.24466,795.372581 C257.639303,796.289748 256.814227,797.948083 256.814227,800.305629 C256.814227,803.667073 258.46382,805.587296 261.41472,805.587296 C262.326027,805.587296 263.064032,805.412704 263.931664,805.150817 L263.931664,804.670692 L263.931664,802.837483 C263.931664,802.051823 263.888548,801.178303 263.888548,800.261981 L263.845432,797.162704 L263.801757,794.936666 L263.801757,794.412611 L263.801477,794.412611 Z M285.153209,789 C291.888473,789 296,793.136002 296,799.829191 C296,806.693739 291.714102,811 284.890807,811 C278.154979,811 274,806.864273 274,800.213443 C274.000282,793.305711 278.286744,789 285.153209,789 Z M285.021444,805.713168 C287.602293,805.713168 289.133253,803.62385 289.133253,799.99945 C289.133253,796.418509 287.646027,794.286282 285.066024,794.286282 C282.397707,794.286282 280.866465,796.37615 280.866465,799.99945 C280.866747,803.624125 282.397707,805.713168 285.021444,805.713168 Z" id="logo1-copy"></path>
        </g>
    </g>
</svg>