<?xml version="1.0" encoding="UTF-8" standalone="no"?>
<svg width="57px" height="80px" viewBox="0 0 57 80" version="1.1" xmlns="http://www.w3.org/2000/svg" xmlns:xlink="http://www.w3.org/1999/xlink">
    <!-- Generator: sketchtool 42 (36781) - http://www.bohemiancoding.com/sketch -->
    <title>D90C82F9-D61B-4A9B-BEB4-FE17E6CF2AFD</title>
    <desc>Created with sketchtool.</desc>
    <defs></defs>
    <g id="Pages" stroke="none" stroke-width="1" fill="none" fill-rule="evenodd">
        <g id="Home" transform="translate(-643.000000, -761.000000)">
            <g id="logo3-copy" transform="translate(643.000000, 761.000000)">
                <polygon id="Fill-1" fill="#78909C" points="28.2631579 15.5952982 0 15.5952982 5.29614035 73.0591579 28.2631579 79.5700351 51.2217544 73.0591579 56.5270175 15.5952982"></polygon>
                <path d="M42.6353684,0.000350877193 L42.6353684,10.7287719 L43.5469474,10.7287719 L46.2374737,10.7287719 L51.2641404,10.7287719 L51.2641404,7.11894737 L46.2374737,7.11894737 L46.2374737,0.000350877193 L42.6353684,0.000350877193 Z M36.9848421,0.000350877193 L34.7497544,3.66912281 L32.5139649,0.000350877193 L28.7694035,0.000350877193 L28.7694035,10.7287719 L32.2613333,10.7287719 L32.2613333,5.37298246 L34.7406316,9.23614035 L34.7497544,9.24385965 L34.7581754,9.23614035 L37.3055439,5.26350877 L37.3055439,10.7287719 L40.7967719,10.7287719 L40.7967719,0.000350877193 L36.9848421,0.000350877193 Z M17.3069474,0.000350877193 L17.3069474,3.61017544 L20.4444912,3.61017544 L20.4444912,10.7287719 L24.0543158,10.7287719 L24.0543158,3.61017544 L27.1918596,3.61017544 L27.1918596,0.000350877193 L17.3069474,0.000350877193 Z M12.1287018,0.000350877193 L12.1287018,3.55964912 L8.86414035,3.55964912 L8.86414035,0.000350877193 L5.25501754,0.000350877193 L5.25501754,10.7287719 L8.86414035,10.7287719 L8.86414035,7.16947368 L12.1287018,7.16947368 L12.1287018,10.7287719 L15.7301053,10.7287719 L15.7301053,0.000350877193 L12.1287018,0.000350877193 Z" id="Fill-2" fill="#78909C"></path>
                <polygon id="Fill-3" fill="#90A4AE" points="28.2634386 20.2764211 28.2634386 74.7037895 46.8613333 69.4315088 51.3904561 20.2764211"></polygon>
                <polygon id="Fill-4" fill="#B0BEC5" points="46.0430175 27.3275088 10.4752982 27.3275088 12.4661754 48.8432982 12.5082807 48.7085614 36.8072281 48.7085614 36.0142456 57.8089123 28.2633684 60.044 20.3938947 57.7759298 19.921614 52.2678596 12.7777544 52.2678596 13.798807 63.2748772 28.2633684 67.3822456 42.7279298 63.2748772 44.718807 41.6741754 18.9349474 41.6741754 18.2689825 34.4713684 45.3854737 34.4713684"></polygon>
                <path d="M19.9218947,52.2679298 L12.7780351,52.2679298 L13.798386,63.2742456 L28.2636491,67.373193 L28.2636491,60.0440702 L20.3941754,57.776 L19.9218947,52.2679298 Z M28.2636491,27.3275789 L10.4755789,27.3275789 L12.4657544,48.8433684 L12.5085614,48.7086316 L28.2636491,48.7086316 L28.2636491,41.6742456 L18.9352281,41.6742456 L18.2692632,34.4714386 L28.2636491,34.4714386 L28.2636491,27.3275789 Z" id="Fill-5" fill="#78909C" opacity="0.259503265"></path>
            </g>
        </g>
    </g>
</svg>