<?xml version="1.0" encoding="UTF-8" standalone="no"?>
<svg width="254px" height="43px" viewBox="0 0 254 43" version="1.1" xmlns="http://www.w3.org/2000/svg" xmlns:xlink="http://www.w3.org/1999/xlink">
    <!-- Generator: sketchtool 42 (36781) - http://www.bohemiancoding.com/sketch -->
    <title>AA106B5D-7CEB-46E1-8862-B4A220AE7C2A</title>
    <desc>Created with sketchtool.</desc>
    <defs></defs>
    <g id="Pages" stroke="none" stroke-width="1" fill="none" fill-rule="evenodd">
        <g id="Home" transform="translate(-1013.000000, -778.000000)">
            <g id="logo5-copy" transform="translate(1017.000000, 782.000000)">
                <g id="layer1">
                    <g id="g4466" transform="translate(49.238356, 5.886241)" fill="#78909C">
                        <path d="M12.6548193,12.3472246 L2.96548746,12.3472246 L2.96548746,2.51311469 L13.1806281,2.51311469 C16.9193158,2.51311469 18.7891094,4.17756931 18.7891094,7.5061463 C18.7891094,10.7338164 16.7441734,12.3472246 12.6548193,12.3472246 L12.6548193,12.3472246 Z M19.6186235,2.3980402 C18.2908557,1.19811909 16.4330272,0.59807492 14.0457922,0.59807492 L0.170077492,0.675689694 L0.170077492,24.1997608 L2.96548746,24.1997608 L2.93978574,14.1847596 L13.2647378,14.1847596 C15.8540979,14.1847596 17.8921383,13.5850191 19.379187,12.3853444 C20.8662609,11.1854233 21.6100574,9.52127228 21.6100574,7.39176049 C21.6100574,5.26238733 20.9461189,3.59807133 19.6186235,2.3980402 L19.6186235,2.3980402 Z" id="path4254"></path>
                        <path d="M37.7132912,19.2622818 C37.4297011,20.0565004 36.9871845,20.7231558 36.3865873,21.2632688 C35.134698,22.4969114 33.2240204,23.1127667 30.6537935,23.1127667 C28.3336349,23.1127667 26.5520666,22.5138249 25.3090887,21.3143153 C24.0657031,20.1153293 23.4442022,18.5110522 23.4442022,16.5009363 C23.4442022,15.4541258 23.6068333,14.5253053 23.9322068,13.7145868 C24.2576086,12.9038661 24.7288523,12.2194985 25.3463478,11.6623069 C26.6313794,10.479988 28.4004648,9.88868995 30.6537935,9.88868995 C35.6439901,9.88868995 38.1391559,12.093119 38.1391559,16.5009363 C38.1391559,17.5481582 37.9968834,18.4686155 37.7132912,19.2622818 L37.7132912,19.2622818 Z M38.2202131,10.584334 C36.5162134,9.01658372 33.9941738,8.23256998 30.6537935,8.23256998 C27.4965709,8.23256998 25.0576861,9.03363587 23.3374705,10.6349689 C21.7842731,12.0843751 21.0077158,14.0395963 21.0077158,16.5006612 C21.0077158,18.944839 21.8091582,20.9168088 23.4128041,22.4165991 C24.297918,23.2261382 25.3294495,23.8116584 26.5072306,24.1739604 C27.6846039,24.5362932 29.0670743,24.7175961 30.6537935,24.7175961 C33.9774107,24.7175961 36.5079539,23.9424384 38.2454777,22.3916281 C39.7985661,20.9758862 40.5756401,19.012634 40.5756401,16.5006612 C40.5756401,13.9725693 39.7901714,12.0003245 38.2202131,10.584334 Z" id="path4256"></path>
                        <path d="M59.3704697,19.9418396 C59.3704697,23.1084762 56.5589507,24.6912741 50.9361069,24.6912741 C49.21747,24.6912741 47.7700514,24.5814253 46.5936047,24.3609025 C45.417158,24.1401333 44.4621616,23.7753824 43.727959,23.2669534 C43.1607484,22.8790995 42.7102732,22.3738873 42.3765051,21.7502187 C42.0426018,21.1268252 41.826195,20.3433616 41.7261398,19.4003514 L44.341992,19.375101 C44.341992,20.6213666 44.7995274,21.5391308 45.7156578,22.1289414 C46.6980753,22.8369356 48.4384052,23.1904101 50.9364885,23.1904101 C54.8662892,23.1904101 56.8313683,22.19715 56.8313683,20.2093383 C56.8313683,19.0475634 56.1723619,18.2475712 54.8544342,17.809221 C54.5870861,17.7248932 52.9979401,17.5019787 50.086233,17.1399231 C47.174661,16.7775925 45.3604671,16.4534103 44.6434353,16.1670706 C43.0916835,15.5439522 42.3159439,14.4238197 42.3159439,12.8066424 C42.3159439,11.2232966 43.0086378,10.0440581 44.3952226,9.26934055 C45.0800648,8.94958308 45.936044,8.70111899 46.9634588,8.52399448 C47.9908475,8.34698219 49.1810024,8.25836823 50.5341723,8.25836823 C55.9462522,8.25836823 58.6523477,9.97221907 58.6523477,13.398737 L56.1646498,13.398737 C56.1646498,10.9899022 54.2620942,9.78527692 50.4576678,9.78527692 C48.5222424,9.78527692 47.0786941,10.0295627 46.1275679,10.5178592 C45.1762759,11.0064307 44.701053,11.7561751 44.701053,12.7666238 C44.701053,13.7100212 45.3432963,14.3921071 46.6283563,14.8129915 C47.3794571,15.0323041 49.1064865,15.285171 51.8101836,15.5713456 C54.2300159,15.7905196 55.8904879,16.1015574 56.7918481,16.5062983 C58.5107554,17.1799396 59.3704697,18.3254588 59.3704697,19.9418374 L59.3704697,19.9418396 Z" id="path4258"></path>
                        <path d="M69.6460068,24.2319949 C69.2452998,24.2991298 68.8902464,24.3493511 68.5817429,24.3829317 C68.27286,24.4157158 68.0515471,24.4329066 67.9182143,24.4329066 C66.2151412,24.4329066 64.9869357,24.1841939 64.2335454,23.6856925 C63.4801835,23.1882649 63.1039517,22.3145348 63.1039517,21.0650525 L63.1039517,10.3287718 L60.0007468,10.3287718 L60.0007468,8.75002015 L63.0790665,8.75002015 L63.1039517,3.67758274 L65.4889234,3.67758274 L65.4889234,8.75002015 L69.6420276,8.75002015 L69.6420276,10.35457 L65.4889234,10.3287718 L65.4889234,20.7741758 C65.4889234,21.5520024 65.6933379,22.0886478 66.102577,22.3846422 C66.5112687,22.6806345 67.2417384,22.8280795 68.2936285,22.8280795 C68.4438857,22.8452637 68.6110434,22.840159 68.7944169,22.8116874 C68.9780629,22.7832224 69.2534219,22.7195794 69.6207423,22.6215285 L69.6460068,24.2319949 L69.6460068,24.2319949 Z" id="path4260"></path>
                        <path d="M86.1411715,20.6702391 C85.4903984,21.208757 84.7483463,21.6210339 83.913925,21.90762 C83.0797501,22.1936846 82.120637,22.3368412 81.036396,22.3368412 C76.0482163,22.3368412 73.5546596,20.2579644 73.5546596,16.1004836 C73.5546596,14.1648999 74.1925137,12.6501763 75.4689065,11.5559499 C76.7446431,10.4618621 78.5423203,9.91473463 80.8612797,9.91473463 C83.1967297,9.91473463 84.9693866,10.4662891 86.1788383,11.5685729 C87.3881548,12.6712704 87.9932764,14.1483714 87.9932764,15.9994909 C87.9932764,18.0192639 87.3757809,19.5758785 86.1411715,20.6702391 L86.1411715,20.6702391 Z M90.3783855,8.76060788 L87.9932764,8.76060788 L87.9680119,11.4141421 C86.9166386,10.336695 86.16513,9.65554419 85.7146548,9.36909451 C84.3791725,8.62875628 82.6516242,8.25836823 80.5319008,8.25836823 C77.427089,8.25836823 75.0564797,8.97400616 73.4208907,10.4051786 C71.8683474,11.7184404 71.0926078,13.62113 71.0926078,16.1128338 C71.0926078,17.3421572 71.2889286,18.4404255 71.6816488,19.4084088 C72.0743711,20.3761457 72.647168,21.1972077 73.3991955,21.8702989 C75.0373182,23.2505613 77.3525447,23.9411183 80.3451739,23.9411183 C83.9391917,23.9411183 86.4885127,22.9492047 87.9932764,20.9648848 L87.9932764,23.7120144 C87.9932764,25.4637364 87.4461824,26.8198486 86.353054,27.7797745 C85.2595179,28.7402527 83.4611604,29.2204895 80.9573557,29.2204895 C78.6036708,29.2204895 76.9263006,28.8930619 75.9252405,28.239331 C75.1738671,27.736539 74.656562,26.8638827 74.372972,25.6232829 L71.9192058,25.6232829 C72.1861723,27.3564698 72.9126605,28.609994 74.0980207,29.3837765 C75.4671622,30.2752188 77.7797439,30.7213535 81.0360144,30.7213535 C87.2638708,30.7213535 90.3783855,28.3849057 90.3783855,23.7120122 L90.3783855,8.76060788 L90.3783855,8.76060788 Z" id="path4262"></path>
                        <path d="M103.279125,10.3242084 C102.562093,10.2067136 101.895076,10.1476076 101.278097,10.1476076 C97.3576175,10.1476076 95.3981268,12.3168607 95.3981268,16.6551207 L95.3981268,24.1997608 L93.0384458,24.1997608 L93.0126361,8.76222949 L95.3981268,8.78599468 L95.3981268,11.5402465 L95.5232285,11.5402465 C95.9233904,10.4550149 96.5574026,9.63205623 97.4249642,9.07230354 C98.3755736,8.52977021 99.793175,8.25836823 101.67815,8.25836823 L102.641406,8.25836823 L103.279125,8.25836823 L103.279125,10.3242084 L103.279125,10.3242084 Z" id="path4264"></path>
                        <path d="M105.497078,15.5046222 C105.797322,13.7500662 106.473116,12.3918066 107.523671,11.4298454 C108.207968,10.8729289 108.984118,10.4552877 109.851272,10.1771463 C110.719487,9.89903125 111.6958,9.75936866 112.78015,9.75936866 C114.899084,9.75936866 116.629168,10.3458239 117.97277,11.5184902 C119.315829,12.6908792 119.986826,14.0197102 119.986826,15.5046222 L105.497078,15.5046222 L105.497078,15.5046222 Z M120.220513,10.7423975 C119.385302,9.89768248 118.349902,9.27269377 117.11412,8.86699128 C115.878311,8.46128659 114.434109,8.25836603 112.780669,8.25836603 C109.690248,8.25836603 107.293691,8.98341234 105.589718,10.4331199 C103.886782,11.8826911 103.034536,13.8547994 103.034536,16.349445 C103.034536,18.8438441 103.853258,20.8241485 105.488819,22.2903582 C107.258286,23.908607 109.754378,24.7175939 112.977125,24.7175939 C114.261884,24.7175939 115.451112,24.5704239 116.544786,24.2770984 C117.638457,23.983555 118.594517,23.5677576 119.412448,23.0308614 C120.848147,21.9903504 121.757357,20.7064887 122.1425,19.1797164 L119.564151,19.1797164 C118.679419,21.8192524 116.477164,23.13884 112.956356,23.13884 C110.469829,23.13884 108.558253,22.4936924 107.223972,21.2023211 C106.072273,20.0959954 105.497078,18.6628163 105.497078,16.9019346 L122.500227,16.9019346 C122.500227,14.2830548 121.741113,12.2297012 120.220513,10.7423975 L120.220513,10.7423975 Z" id="path4266"></path>
                        <path d="M147.69751,17.8935731 C147.69751,22.4770253 144.034536,24.7688889 136.707828,24.7688889 C132.317984,24.7688889 129.113882,23.9797881 127.094757,22.400207 C125.441888,21.1026772 124.61649,19.1238294 124.61649,16.4619914 L127.565864,16.4619914 C127.565864,20.740868 130.612404,22.8796496 136.707038,22.8796496 C139.628994,22.8796496 141.74155,22.4421223 143.044162,21.566797 C144.146065,20.7932632 144.697031,19.5812406 144.697031,17.9317215 C144.697031,16.2989508 143.945658,15.1545031 142.44261,14.4976654 C141.590883,14.1443273 139.511606,13.6978097 136.205568,13.1592918 C132.048076,12.5196427 129.351847,11.8801321 128.116311,11.2406216 C126.330055,10.2978865 125.436819,8.69869648 125.436819,6.44283599 C125.436819,4.33884742 126.196995,2.77351529 127.716531,1.74642594 C129.351847,0.618757524 132.157479,0.0545800736 136.131843,0.0545800736 C143.312191,0.0545800736 146.902473,2.46126956 146.902473,7.27412928 L143.927804,7.27412928 C143.927804,3.66872663 141.261639,1.86623103 135.9301,1.86623103 C133.255947,1.86623103 131.300436,2.22881029 130.063838,2.95347155 C128.893496,3.72873918 128.309278,4.86609102 128.309278,6.3658813 C128.309278,7.93322008 129.060652,9.03712771 130.564216,9.67757336 C131.364841,10.0485115 133.719588,10.5624412 137.627421,11.219939 C141.301569,11.7763363 143.780899,12.4248393 145.067267,13.1662777 C146.821035,14.0763937 147.69751,15.6524522 147.69751,17.8935731 L147.69751,17.8935731 Z" id="path4268"></path>
                        <path d="M171.654733,20.2324412 C170.552311,21.1233334 169.306909,21.791584 167.919641,22.2377187 C166.531857,22.6830262 164.978252,22.9062443 163.256973,22.9062443 C159.747067,22.9062443 156.910527,21.9516827 154.745288,20.0430788 C152.581899,18.1345034 151.499948,15.5906816 151.499948,12.4120777 C151.499948,9.09890048 152.57285,6.51764541 154.72054,4.66718597 C156.868746,2.81716438 159.713787,1.89214149 163.256973,1.89214149 C166.849926,1.89214149 169.67499,2.85918968 171.730583,4.79315183 C172.816025,5.73564053 173.61853,6.83698923 174.137252,8.09826947 C174.654692,9.35996336 174.914463,10.7977344 174.914463,12.4120777 C174.914463,15.7085879 173.827713,18.3149811 171.654733,20.2324412 L171.654733,20.2324412 Z M173.222456,21.7926577 C174.759544,20.6992564 175.896334,19.3740295 176.631764,17.8172784 C177.367438,16.260556 177.735548,14.4632861 177.735548,12.4265732 C177.735548,8.77391956 176.532472,5.84510431 174.127931,3.64012302 C172.842107,2.428239 171.288502,1.52766559 169.46845,0.938512793 C167.648425,0.349362197 165.568601,0.0545800736 163.231163,0.0545800736 C158.688771,0.0545800736 155.123508,1.16560999 152.535321,3.38736619 C149.946343,5.60901458 148.653051,8.62188041 148.653051,12.425363 C148.653051,16.1278793 149.958579,19.115772 152.571243,21.3873667 C155.183662,23.6593728 158.752929,24.7952108 163.276923,24.7952108 C165.046118,24.7952108 166.590157,24.6743606 167.908739,24.4329066 C169.227568,24.1909047 170.346261,23.8199644 171.264819,23.31987 L175.621927,26.3672802 L177.441435,24.6805214 L173.222456,21.7926577 L173.222456,21.7926577 Z" id="path4270"></path>
                        <polygon id="path4272" points="199.823222 24.1997586 179.670563 24.1997586 179.670563 0.648984931 182.440789 0.59807492 182.440789 22.2328759 199.848515 22.2328759"></polygon>
                    </g>
                    <g id="g4478" transform="translate(0.098798, 0.178978)">
                        <path d="M30.1902681,25.9527462 C30.4704365,23.9553893 30.3865707,23.662495 32.1257901,23.9858821 L32.5673469,24.0190327 C33.9047021,24.0711249 35.6542012,23.83512 36.6819749,23.4266721 C38.8945478,22.5484443 40.2065448,21.0822978 38.0249386,21.4676352 C33.0485011,22.3457721 32.706293,20.904247 32.706293,20.904247 C37.9612388,14.2350258 40.1579134,5.76853322 38.2618814,3.69629116 C33.0901731,-1.9559931 24.1380426,0.716884593 23.9882959,0.786262448 L23.9405898,0.793771495 C22.9569781,0.619280092 21.8566722,0.515013423 20.6204322,0.497991364 C18.3687838,0.466342974 16.6599675,1.00297913 15.3637735,1.84391519 C15.3637735,1.84391519 -0.606167511,-3.7838285 0.136659367,8.92159378 C0.294663805,11.6245994 4.66603876,29.3737615 9.87947182,24.0127244 C11.7851135,22.0523498 13.6265334,20.3949091 13.6265334,20.3949091 C14.540922,20.9145603 15.6356731,21.1797195 16.7840044,21.084427 L16.8727431,21.019719 C16.8448949,21.2630967 16.8572602,21.5012315 16.9082856,21.7829213 C15.5653228,23.0664928 15.9600674,23.292003 13.2747582,23.7647227 C10.5582269,24.2436596 12.1541807,25.0963828 13.1960437,25.3190524 C14.4592492,25.5893643 17.381703,25.9721254 19.3563439,23.6075621 L19.2777776,23.8774371 C19.8046577,24.2379703 19.7689134,26.4687478 19.8437331,28.0626362 C19.918351,29.6565159 20.0432605,31.1439974 20.4231931,32.0208971 C20.8029231,32.8977961 21.2512368,35.1564812 24.7803715,34.5095432 C27.729738,33.9690018 29.9846112,33.190954 30.1902681,25.9527462" id="path4276" stroke="#78909C" stroke-width="7.21612795" fill="#78909C"></path>
                        <path d="M38.0253532,21.4676352 C33.0485011,22.3457721 32.706293,20.904247 32.706293,20.904247 C37.9612388,14.2347527 40.1579134,5.76808757 38.2621896,3.69593581 C33.0905877,-1.95616568 24.1380426,0.716883865 23.9887105,0.78626172 L23.9405898,0.793644062 C22.9569781,0.619061636 21.8566722,0.515012695 20.6199112,0.497855193 C18.3680602,0.466260689 16.6599675,1.00279709 15.3637735,1.84365086 C15.3637735,1.84365086 -0.606582954,-3.7839654 0.136244775,8.92132071 C0.294100233,11.6245994 4.66546413,29.3737615 9.87905722,24.0127244 C11.784698,22.0523491 13.6259588,20.3949091 13.6259588,20.3949091 C14.5403584,20.9145603 15.6352585,21.1797195 16.7828551,21.084427 L16.8720195,21.019719 C16.8443304,21.2630967 16.857164,21.5012315 16.907871,21.7829213 C15.564801,23.0664928 15.9593336,23.292003 13.27445,23.7647227 C10.5575458,24.2436589 12.1536162,25.0963821 13.1956283,25.3190524 C14.4589827,25.5893636 17.3815438,25.9721254 19.3559285,23.6075621 L19.2772565,23.8774371 C19.8036148,24.2379703 20.1731613,26.2226117 20.1111216,28.0217391 C20.0492836,29.8208767 20.0079309,31.0561783 20.4224695,32.0208964 C20.8372098,32.9857055 21.2503966,35.156482 24.7803715,34.5095439 C27.729738,33.9690018 29.2580972,32.5679274 29.4708303,30.2310992 C29.621716,28.5697444 29.9629979,28.8151706 29.9846112,27.3298269 L30.2585437,26.6267094 C30.574361,24.3745051 30.3087391,23.6479218 32.1257901,23.9858821 L32.5673469,24.0190327 C33.9047021,24.0711249 35.6551376,23.83512 36.6823904,23.4266721 C38.8945478,22.5484435 40.2065448,21.0822978 38.0253532,21.4676352 L38.0253532,21.4676352 Z" id="path4278" fill="#78909C"></path>
                        <path d="M19.5696942,22.7585803 C19.4326219,26.9491134 19.6040874,31.1689742 20.0835815,32.1944958 C20.5631709,33.2201091 21.5896992,35.2148817 25.1199831,34.5680347 C28.0689351,34.0272297 29.1420202,32.9807269 29.6075841,30.6706595 C29.9506326,28.9710838 30.6117654,24.2510413 30.6965676,23.2839202" id="path4282" stroke="#B0BEC5" stroke-width="2.40537567"></path>
                        <path d="M15.3390853,1.75009725 C15.3390853,1.75009725 -0.642124588,-3.83698676 0.100861486,8.86829935 C0.258865924,11.5713509 4.63022982,29.3213132 9.84392933,23.9600133 C11.7491555,21.9994559 13.4723174,20.4617557 13.4723174,20.4617557" id="path4286" stroke="#B0BEC5" stroke-width="2.40537567"></path>
                        <path d="M23.9711419,0.730310146 C23.4176683,0.878659696 32.8608172,-2.22234508 38.2273818,3.6430062 C40.1229881,5.71515724 37.9262173,14.1818682 32.6714741,20.8517179" id="path4290" stroke="#B0BEC5" stroke-width="2.40537567"></path>
                        <path d="M32.6714741,20.8517179 C32.6714741,20.8517179 33.0137887,22.2934148 37.99096,21.4148323 C40.1716298,21.0294949 38.8593144,22.4959057 36.6475817,23.3744066 C34.8324998,24.0949453 30.7629703,24.2796589 30.6965676,23.2839202 C30.5253039,20.7149101 32.8383748,21.4954512 32.6714741,20.8517179 C32.5204819,20.2719724 31.4862595,19.7029051 30.8020458,18.2842181 C30.2047081,17.0457205 22.609886,7.54810887 32.9082041,8.95852151 C33.2855393,8.89176513 30.2222776,0.579903472 20.5844751,0.444742814 C10.949482,0.309637497 11.2656075,10.5805819 11.2656075,10.5805819" id="path4294" stroke="#B0BEC5" stroke-width="2.40537567"></path>
                        <path d="M16.8727431,21.7302094 C15.5292585,23.0136906 15.9243658,23.2392001 13.2392157,23.7121026 C10.522429,24.1911298 12.1186484,25.0435799 13.1603412,25.2662495 C14.4236003,25.5368257 17.3463095,25.9194958 19.3205988,23.554323 C19.9220866,22.8341383 19.3170658,21.6850524 18.4913632,21.3921676 C18.0922548,21.2508268 17.558777,21.0735865 16.8727431,21.7302094 L16.8727431,21.7302094 Z" id="path4298" stroke="#B0BEC5" stroke-width="2.40537567"></path>
                        <path d="M16.7846744,21.7078082 C16.6495278,20.9531352 17.0747717,20.0550832 17.530354,19.0044028 C18.2151424,17.4282093 19.7949952,15.8513969 18.5311087,10.8508115 C17.5891264,7.1243691 11.2695133,10.0751573 11.2656075,10.5805819 C11.2616574,11.08566 11.5513418,13.1418558 11.1599803,15.5358378 C10.6492114,18.6599617 13.4838527,21.302027 16.7480465,21.0318069" id="path4302" stroke="#B0BEC5" stroke-width="2.40537567"></path>
                        <path d="M15.2809931,10.5046781 C15.2525702,10.6772944 15.650486,11.1377442 16.1690556,11.1992576 C16.6870394,11.2611257 17.1302137,10.9013024 17.1582221,10.7288499 C17.1863794,10.5562336 16.7888884,10.366186 16.2700643,10.304181 C15.7519102,10.2424491 15.3084268,10.3324528 15.2809931,10.5046781 Z" id="path4306" stroke="#B0BEC5" stroke-width="0.80179883" fill="#B0BEC5"></path>
                        <path d="M31.0545779,10.1528459 C31.0827352,10.3254258 30.6852451,10.7860118 30.1665691,10.8475252 C29.6483197,10.909303 29.2049963,10.5494702 29.1765198,10.3769355 C29.1490861,10.2043104 29.546789,10.0142722 30.0650393,9.95240343 C30.5832999,9.89066278 31.0265168,9.98053905 31.0545779,10.1528459 L31.0545779,10.1528459 Z" id="path4310" stroke="#B0BEC5" stroke-width="0.5" fill="#B0BEC5"></path>
                        <path d="M32.9082041,8.95852151 C32.9935273,10.3121823 32.5673469,11.2342834 32.5136186,12.6756257 C32.4340205,14.7700504 33.6809547,17.1673187 31.8020768,19.5676083" id="path4314" stroke="#B0BEC5" stroke-width="2.40537567"></path>
                    </g>
                </g>
            </g>
        </g>
    </g>
</svg>