<?xml version="1.0" encoding="UTF-8" standalone="no"?>
<svg width="150px" height="34px" viewBox="0 0 150 34" version="1.1" xmlns="http://www.w3.org/2000/svg" xmlns:xlink="http://www.w3.org/1999/xlink">
    <!-- Generator: sketchtool 42 (36781) - http://www.bohemiancoding.com/sketch -->
    <title>FF306CCD-9B0A-4EF4-89C5-28670F86E651</title>
    <desc>Created with sketchtool.</desc>
    <defs></defs>
    <g id="Pages" stroke="none" stroke-width="1" fill="none" fill-rule="evenodd">
        <g id="Home" transform="translate(-784.000000, -784.000000)" fill="#78909C">
            <path d="M925.022812,801.954375 C920.064849,801.954375 916.045625,797.935151 916.045625,792.977188 C916.045625,788.019224 920.064849,784 925.022812,784 C929.980776,784 934,788.019224 934,792.977188 C934,797.935151 929.980776,801.954375 925.022812,801.954375 Z M918.918657,791.778341 C918.256351,791.778341 917.719811,792.314881 917.719811,792.977188 C917.719811,793.639098 918.256351,794.175638 918.918657,794.175638 C919.580766,794.175638 920.117306,793.639098 920.117306,792.977188 C920.117108,792.314881 919.580568,791.778341 918.918657,791.778341 Z M927.47616,797.225735 C926.902781,797.556888 926.706307,798.289506 927.037461,798.862488 C927.368218,799.435867 928.100835,799.632341 928.674412,799.301187 C929.247791,798.97043 929.444264,798.237812 929.113111,797.664434 C928.782156,797.091649 928.049142,796.894978 927.47616,797.225735 Z M921.522133,792.977188 C921.522133,791.792799 922.110564,790.74626 923.010739,790.112671 L922.134529,788.64506 C921.085811,789.345988 920.305857,790.417087 919.981438,791.671588 C920.359729,791.980361 920.601954,792.450353 920.601954,792.977188 C920.601954,793.503626 920.359729,793.973619 919.981438,794.282391 C920.305461,795.537288 921.085415,796.608387 922.134529,797.309315 L923.010739,795.841308 C922.110366,795.208116 921.522133,794.161774 921.522133,792.977188 Z M925.022812,789.475914 C926.851682,789.475914 928.352567,790.878166 928.509628,792.666434 L930.217484,792.641281 C930.133309,791.321025 929.556563,790.135844 928.670253,789.26419 C928.214521,789.436302 927.688082,789.409961 927.233142,789.147732 C926.77741,788.88471 926.491612,788.44106 926.413379,787.959382 C925.970521,787.83718 925.504292,787.770237 925.022416,787.770237 C924.193741,787.770237 923.41042,787.96473 922.715038,788.309153 L923.547873,789.801522 C923.996277,789.593165 924.495977,789.475914 925.022812,789.475914 Z M925.022812,796.478065 C924.495977,796.478065 923.996078,796.360815 923.548269,796.152259 L922.715632,797.644628 C923.411212,797.989249 924.194533,798.183941 925.022812,798.183941 C925.505084,798.183941 925.970917,798.116997 926.413775,797.994399 C926.492008,797.512721 926.777806,797.069467 927.233538,796.806049 C927.688874,796.543424 928.214917,796.517479 928.670649,796.689591 C929.557158,795.818135 930.133705,794.632756 930.21788,793.3125 L928.509628,793.287347 C928.352369,795.076209 926.85188,796.478065 925.022812,796.478065 Z M927.475764,788.727848 C928.04934,789.059002 928.781958,788.862924 929.112715,788.289545 C929.443868,787.716167 929.247791,786.983549 928.674412,786.652396 C928.100835,786.321639 927.368218,786.518112 927.037065,787.091491 C926.706307,787.664474 926.902979,788.397091 927.475764,788.727848 Z M801.954177,816.532452 C801.042119,816.760813 799.838123,817.00284 798.342189,817.259128 C796.845661,817.516009 795.114632,817.643757 793.147914,817.643757 C791.438077,817.643757 789.998788,817.394005 788.830442,816.896285 C787.661503,816.397772 786.721122,815.692091 786.009103,814.779835 C785.296291,813.867974 784.783518,812.791924 784.47019,811.552079 C784.156268,810.312631 784,808.938305 784,807.427319 L784,794.945094 L787.975425,794.945094 L787.975425,806.572499 C787.975425,809.280351 788.402835,811.217955 789.258248,812.386301 C790.113067,813.55524 791.551961,814.139314 793.57572,814.139314 C794.003129,814.139314 794.444601,814.125252 794.900927,814.096137 C795.356461,814.068211 795.783871,814.032165 796.183354,813.989384 C796.582046,813.946603 796.945482,813.903823 797.273467,813.861438 C797.600659,813.818856 797.835754,813.769341 797.97895,813.712103 L797.97895,794.945094 L801.954375,794.945094 L801.954177,816.532452 Z M811.657843,795.928057 C812.142095,795.614927 812.876099,795.286943 813.85926,794.945094 C814.842421,794.60285 815.975314,794.432123 817.257741,794.432123 C818.853496,794.432123 820.271395,794.716931 821.51124,795.286745 C822.750886,795.857152 823.798218,796.654733 824.653038,797.680873 C825.508055,798.706814 826.155904,799.932399 826.598168,801.35723 C827.039639,802.782457 827.26087,804.349296 827.26087,806.059132 C827.26087,807.854728 826.996859,809.472468 826.470024,810.911559 C825.942397,812.35065 825.194529,813.568906 824.225628,814.56613 C823.256331,815.564145 822.088183,816.333403 820.720393,816.874498 C819.352603,817.415395 817.813493,817.686735 816.103458,817.686735 C814.250623,817.686735 812.612285,817.55879 811.187454,817.302106 C809.762227,817.045621 808.593882,816.789531 807.68222,816.53265 L807.68222,784.685083 L811.657843,784.001386 L811.657843,795.928057 Z M811.657843,813.711508 C812.056732,813.825392 812.619613,813.932145 813.346487,814.03157 C814.073163,814.131986 814.977299,814.181501 816.060875,814.181501 C818.19832,814.181501 819.908156,813.476017 821.190385,812.065446 C822.473011,810.654479 823.114125,808.652903 823.114125,806.058934 C823.114125,804.919901 823.000044,803.851179 822.772079,802.852966 C822.543717,801.855742 822.173745,800.993595 821.660774,800.266721 C821.147803,799.539847 820.4851,798.970034 819.672863,798.556488 C818.860626,798.143735 817.884199,797.936764 816.74477,797.936764 C815.661194,797.936764 814.66397,798.122543 813.752506,798.492515 C812.840052,798.86328 812.142095,799.248108 811.657843,799.646601 L811.657843,813.711508 L811.657843,813.711508 Z M849.446562,816.532452 C848.534306,816.760813 847.330508,817.00284 845.834574,817.259128 C844.338046,817.516009 842.607017,817.643757 840.640497,817.643757 C838.930462,817.643757 837.491371,817.394005 836.322827,816.896285 C835.153887,816.397772 834.213507,815.692091 833.501487,814.779835 C832.788676,813.867974 832.275903,812.791924 831.962575,811.552079 C831.648653,810.312235 831.492187,808.938107 831.492187,807.427121 L831.492187,794.945094 L835.467612,794.945094 L835.467612,806.572499 C835.467612,809.280351 835.895021,811.217955 836.750237,812.386301 C837.604858,813.55524 839.043949,814.139314 841.067708,814.139314 C841.495118,814.139314 841.936788,814.125252 842.392916,814.096137 C842.84845,814.068211 843.275859,814.032165 843.675343,813.989384 C844.074034,813.946603 844.437471,813.903823 844.765455,813.861438 C845.092648,813.818856 845.327941,813.769341 845.470939,813.712103 L845.470939,794.945094 L849.446364,794.945094 L849.446562,816.532452 Z M855.17401,795.586209 C856.08587,795.358244 857.296798,795.11582 858.807983,794.859137 C860.318177,794.60285 862.056336,794.474706 864.022658,794.474706 C865.789733,794.474706 867.256949,794.724457 868.425889,795.222574 C869.593838,795.721681 870.527088,796.41944 871.225838,797.317238 C871.923597,798.215036 872.415376,799.291284 872.700778,800.544795 C872.985189,801.799098 873.128187,803.181346 873.128187,804.691738 L873.128187,817.173764 L869.152366,817.173764 L869.152366,805.546161 C869.152366,804.178569 869.059477,803.010422 868.874689,802.041125 C868.68891,801.07262 868.383702,800.288507 867.9555,799.690174 C867.528091,799.091443 866.957881,798.657102 866.245664,798.386158 C865.532456,798.115412 864.648918,797.979941 863.595446,797.979941 C863.16764,797.979941 862.725178,797.994597 862.270239,798.022721 C861.813912,798.05144 861.379175,798.08709 860.966421,798.129871 C860.552678,798.172453 860.182111,798.22276 859.855314,798.279405 C859.52733,798.336842 859.291839,798.379622 859.149831,798.40735 L859.149831,817.173566 L855.174208,817.173566 L855.174208,795.586209 L855.17401,795.586209 Z M882.318684,794.945094 L890.740318,794.945094 L890.740318,798.279405 L882.318684,798.279405 L882.318684,808.538623 C882.318684,809.64973 882.404047,810.569116 882.575169,811.295594 C882.746093,812.022864 883.002579,812.592875 883.344823,813.005827 C883.68687,813.419372 884.11428,813.71131 884.62725,813.882235 C885.140221,814.053159 885.738555,814.138918 886.42245,814.138918 C887.647639,814.138918 888.616936,814.003842 889.329549,813.732701 C890.04137,813.462153 890.526415,813.269839 890.7829,813.155757 L891.63772,816.404506 C891.238236,816.604149 890.532951,816.860832 889.521468,817.173764 C888.509786,817.487093 887.363227,817.643955 886.080206,817.643955 C884.569615,817.643955 883.323235,817.45164 882.339876,817.067011 C881.356517,816.682382 880.565868,816.10524 879.967336,815.335784 C879.369002,814.56613 878.948129,813.619015 878.706497,812.492856 C878.463678,811.367489 878.342863,810.06387 878.342863,808.581602 L878.342863,788.746466 L882.318486,788.062571 L882.318684,794.945094 Z M912.370258,816.532452 C911.457804,816.760813 910.253808,817.00284 908.758072,817.259128 C907.261742,817.516009 905.530713,817.643757 903.563995,817.643757 C901.854158,817.643757 900.414869,817.394005 899.246523,816.896285 C898.077583,816.397772 897.137203,815.692091 896.424985,814.779835 C895.712174,813.867974 895.199401,812.791924 894.885875,811.552079 C894.571755,810.312235 894.415487,808.938107 894.415487,807.427121 L894.415487,794.945094 L898.391308,794.945094 L898.391308,806.572499 C898.391308,809.280351 898.818717,811.217955 899.673735,812.386301 C900.528554,813.55524 901.967249,814.139314 903.991404,814.139314 C904.418616,814.139314 904.860286,814.125252 905.316414,814.096137 C905.77175,814.068211 906.199556,814.032165 906.599039,813.989384 C906.997928,813.946603 907.361167,813.903823 907.689152,813.861438 C908.016146,813.818856 908.251637,813.769341 908.394437,813.712103 L908.394437,794.945094 L912.370258,794.945094 L912.370258,816.532452 Z" id="logo4-copy"></path>
        </g>
    </g>
</svg>