<?xml version="1.0" encoding="UTF-8" standalone="no"?>
<svg width="41px" height="94px" viewBox="0 0 41 94" version="1.1" xmlns="http://www.w3.org/2000/svg" xmlns:xlink="http://www.w3.org/1999/xlink">
    <!-- Generator: sketchtool 40.1 (33804) - http://www.bohemiancoding.com/sketch -->
    <title>D1E0BACC-7917-4C23-9218-A5519371EE04</title>
    <desc>Created with sketchtool.</desc>
    <defs></defs>
    <g id="Componentes" stroke="none" stroke-width="1" fill="none" fill-rule="evenodd">
        <g transform="translate(-1085.000000, -831.000000)" id="ico_twitter">
            <g transform="translate(1085.000000, 831.000000)">
                <path d="M28.68,16.924924 C28.6889091,17.1027397 28.6927273,17.2805554 28.6927273,17.4596322 C28.6927273,22.9303022 24.4901818,29.2383454 16.8054545,29.2383454 C14.4458182,29.2383454 12.2503636,28.5535658 10.4010909,27.3782167 C10.7294545,27.4160498 11.0616364,27.4349664 11.3976364,27.4349664 C13.3563636,27.4349664 15.156,26.7754089 16.5852727,25.6643761 C14.7589091,25.6303263 13.2150909,24.4335384 12.6843636,22.7903196 C12.9389091,22.8369805 13.1998182,22.8634637 13.4696364,22.8634637 C13.8514545,22.8634637 14.2205455,22.8117584 14.5692727,22.7184367 C12.6601818,22.3363221 11.2194545,20.664098 11.2194545,18.6589423 L11.2194545,18.607237 C11.7832727,18.9174687 12.4272727,19.102851 13.112,19.1255509 C11.9907273,18.3840216 11.2538182,17.1153508 11.2538182,15.6789531 C11.2538182,14.9210295 11.46,14.2085056 11.8189091,13.5981312 C13.8781818,16.1026841 16.9581818,17.7509473 20.4301818,17.9224575 C20.3589091,17.6197924 20.322,17.3045164 20.322,16.9791515 C20.322,14.6940307 22.1929091,12.8414687 24.5003636,12.8414687 C25.7005455,12.8414687 26.7874545,13.3446492 27.5498182,14.1467115 C28.5005455,13.9625903 29.3952727,13.6170477 30.2034545,13.1416115 C29.8903636,14.1101395 29.2285455,14.9210295 28.3656364,15.4330378 C29.2107273,15.3346716 30.0163636,15.1101951 30.7647273,14.782308 C30.206,15.6121146 29.4970909,16.3410328 28.68,16.924924 L28.68,16.924924 Z M20.5829091,0.860978829 C9.33709091,0.860978829 0.219272727,9.89552927 0.219272727,21.0386459 C0.219272727,32.1842848 9.33709091,41.216313 20.5829091,41.216313 C31.8287273,41.216313 40.9465455,32.1842848 40.9465455,21.0386459 C40.9465455,9.89552927 31.8287273,0.860978829 20.5829091,0.860978829 L20.5829091,0.860978829 Z" id="ic_twitter" fill="#38A0CE"></path>
                <path d="M28.68,68.924924 C28.6889091,69.1027397 28.6927273,69.2805554 28.6927273,69.4596322 C28.6927273,74.9303022 24.4901818,81.2383454 16.8054545,81.2383454 C14.4458182,81.2383454 12.2503636,80.5535658 10.4010909,79.3782167 C10.7294545,79.4160498 11.0616364,79.4349664 11.3976364,79.4349664 C13.3563636,79.4349664 15.156,78.7754089 16.5852727,77.6643761 C14.7589091,77.6303263 13.2150909,76.4335384 12.6843636,74.7903196 C12.9389091,74.8369805 13.1998182,74.8634637 13.4696364,74.8634637 C13.8514545,74.8634637 14.2205455,74.8117584 14.5692727,74.7184367 C12.6601818,74.3363221 11.2194545,72.664098 11.2194545,70.6589423 L11.2194545,70.607237 C11.7832727,70.9174687 12.4272727,71.102851 13.112,71.1255509 C11.9907273,70.3840216 11.2538182,69.1153508 11.2538182,67.6789531 C11.2538182,66.9210295 11.46,66.2085056 11.8189091,65.5981312 C13.8781818,68.1026841 16.9581818,69.7509473 20.4301818,69.9224575 C20.3589091,69.6197924 20.322,69.3045164 20.322,68.9791515 C20.322,66.6940307 22.1929091,64.8414687 24.5003636,64.8414687 C25.7005455,64.8414687 26.7874545,65.3446492 27.5498182,66.1467115 C28.5005455,65.9625903 29.3952727,65.6170477 30.2034545,65.1416115 C29.8903636,66.1101395 29.2285455,66.9210295 28.3656364,67.4330378 C29.2107273,67.3346716 30.0163636,67.1101951 30.7647273,66.782308 C30.206,67.6121146 29.4970909,68.3410328 28.68,68.924924 L28.68,68.924924 Z M20.5829091,52.8609788 C9.33709091,52.8609788 0.219272727,61.8955293 0.219272727,73.0386459 C0.219272727,84.1842848 9.33709091,93.216313 20.5829091,93.216313 C31.8287273,93.216313 40.9465455,84.1842848 40.9465455,73.0386459 C40.9465455,61.8955293 31.8287273,52.8609788 20.5829091,52.8609788 L20.5829091,52.8609788 Z" id="ic_twitter" fill="#00B394"></path>
            </g>
        </g>
    </g>
</svg>