<?xml version="1.0" encoding="UTF-8" standalone="no"?>
<svg width="42px" height="94px" viewBox="0 0 42 94" version="1.1" xmlns="http://www.w3.org/2000/svg" xmlns:xlink="http://www.w3.org/1999/xlink">
    <!-- Generator: sketchtool 40.1 (33804) - http://www.bohemiancoding.com/sketch -->
    <title>F8293458-877B-4D28-950D-E10DC80AFBFD</title>
    <desc>Created with sketchtool.</desc>
    <defs></defs>
    <g id="Componentes" stroke="none" stroke-width="1" fill="none" fill-rule="evenodd">
        <g transform="translate(-1138.000000, -831.000000)" id="ico_facebook">
            <g transform="translate(1138.000000, 831.000000)">
                <path d="M25.6485455,21.0462125 L22.7950909,21.0462125 L22.7950909,31.1274795 L18.5670909,31.1274795 L18.5670909,21.0462125 L16.5561818,21.0462125 L16.5561818,17.4848543 L18.5670909,17.4848543 L18.5670909,15.1795558 C18.5670909,13.5287704 19.3574545,10.9498124 22.8332727,10.9498124 L25.9654545,10.9624234 L25.9654545,14.4203711 L23.6923636,14.4203711 C23.322,14.4203711 22.7950909,14.6032312 22.7950909,15.3914213 L22.7950909,17.4848543 L26.0189091,17.4848543 L25.6485455,21.0462125 L25.6485455,21.0462125 Z M21.2856364,0.860978829 C10.0398182,0.860978829 0.922,9.89552927 0.922,21.0386459 C0.922,32.1842848 10.0398182,41.216313 21.2856364,41.216313 C32.5327273,41.216313 41.6492727,32.1842848 41.6492727,21.0386459 C41.6492727,9.89552927 32.5327273,0.860978829 21.2856364,0.860978829 L21.2856364,0.860978829 Z" id="ic_facebook" fill="#35568C"></path>
                <path d="M25.6485455,73.0462125 L22.7950909,73.0462125 L22.7950909,83.1274795 L18.5670909,83.1274795 L18.5670909,73.0462125 L16.5561818,73.0462125 L16.5561818,69.4848543 L18.5670909,69.4848543 L18.5670909,67.1795558 C18.5670909,65.5287704 19.3574545,62.9498124 22.8332727,62.9498124 L25.9654545,62.9624234 L25.9654545,66.4203711 L23.6923636,66.4203711 C23.322,66.4203711 22.7950909,66.6032312 22.7950909,67.3914213 L22.7950909,69.4848543 L26.0189091,69.4848543 L25.6485455,73.0462125 L25.6485455,73.0462125 Z M21.2856364,52.8609788 C10.0398182,52.8609788 0.922,61.8955293 0.922,73.0386459 C0.922,84.1842848 10.0398182,93.216313 21.2856364,93.216313 C32.5327273,93.216313 41.6492727,84.1842848 41.6492727,73.0386459 C41.6492727,61.8955293 32.5327273,52.8609788 21.2856364,52.8609788 L21.2856364,52.8609788 Z" id="ic_facebook" fill="#00B394"></path>
            </g>
        </g>
    </g>
</svg>