<?xml version="1.0" encoding="UTF-8" standalone="no"?>
<svg width="180px" height="44px" viewBox="0 0 180 44" version="1.1" xmlns="http://www.w3.org/2000/svg" xmlns:xlink="http://www.w3.org/1999/xlink">
    <!-- Generator: sketchtool 42 (36781) - http://www.bohemiancoding.com/sketch -->
    <title>72379087-CBD0-4E86-A8B5-F9AC8C0DB713</title>
    <desc>Created with sketchtool.</desc>
    <defs></defs>
    <g id="Pages" stroke="none" stroke-width="1" fill="none" fill-rule="evenodd">
        <g id="Home" transform="translate(-380.000000, -779.000000)" fill="#78909C">
            <path d="M447.868437,801.24132 C447.868437,795.720714 446.294288,792.886506 443.14599,792.731307 C441.89332,792.672185 440.670216,792.871724 439.480364,793.333624 C438.530702,793.67358 437.891437,794.009844 437.555173,794.3498 L437.555173,807.526831 C439.569048,808.790586 441.357521,809.378118 442.916889,809.285741 C446.216689,809.067724 447.868437,806.388715 447.868437,801.24132 Z M451.752076,801.470422 C451.752076,804.275067 451.094334,806.603035 449.771457,808.454322 C448.297078,810.549493 446.25364,811.628487 443.641145,811.687612 C441.671611,811.75043 439.642955,811.133332 437.555173,809.840017 L437.555173,821.816113 L434.177774,820.611483 L434.177774,794.028318 C434.73205,793.348405 435.445222,792.764566 436.309896,792.269411 C438.320078,791.098036 440.762593,790.49572 443.637449,790.466161 L443.685485,790.514197 C446.312762,790.480938 448.337725,791.559936 449.760372,793.747483 C451.086941,795.753969 451.752076,798.32582 451.752076,801.470422 Z M472.393381,809.330081 C472.393381,813.091781 472.016473,815.696886 471.262658,817.145399 C470.505142,818.593912 469.064022,819.750506 466.935593,820.611483 C465.209941,821.291396 463.343873,821.660914 461.341083,821.723732 L460.783111,819.595307 C462.819155,819.318169 464.252891,819.041027 465.084305,818.763888 C466.721272,818.209612 467.844611,817.35972 468.461705,816.2216 C468.95686,815.294109 469.200743,813.524118 469.200743,810.90423 L469.200743,810.024779 C466.891252,811.07421 464.470904,811.595231 461.939704,811.595231 C460.276871,811.595231 458.80988,811.07421 457.546128,810.024779 C456.127174,808.882963 455.417699,807.43445 455.417699,805.67924 L455.417699,791.622754 L458.795099,790.466161 L458.795099,804.615023 C458.795099,806.126354 459.282865,807.29034 460.258393,808.106977 C461.233921,808.923611 462.497677,809.3153 464.045959,809.285741 C465.594242,809.252482 467.253379,808.653861 469.015981,807.48249 L469.015981,790.976097 L472.393381,790.976097 L472.393381,809.330081 Z M485.577804,811.502851 C485.17503,811.536106 484.805511,811.550887 484.465555,811.550887 C482.555142,811.550887 481.065981,811.09638 480.001769,810.18367 C478.941248,809.27096 478.409146,808.0109 478.409146,806.403496 L478.409146,793.100826 L476.095959,793.100826 L476.095959,790.976097 L478.409146,790.976097 L478.409146,785.333547 L481.782849,784.13261 L481.782849,790.976097 L485.577804,790.976097 L485.577804,793.100826 L481.782849,793.100826 L481.782849,806.311116 C481.782849,807.578563 482.122805,808.476492 482.802721,809.00121 C483.386561,809.433547 484.314052,809.681126 485.577804,809.743944 L485.577804,811.502851 Z M506.026959,811.225712 L502.649559,811.225712 L502.649559,798.189099 C502.649559,796.862526 502.339162,795.720714 501.722071,794.767356 C501.0089,793.688362 500.018586,793.148863 498.747446,793.148863 C497.19916,793.148863 495.262881,793.9655 492.938616,795.598774 L492.938616,811.225712 L489.561213,811.225712 L489.561213,780.064213 L492.938616,779 L492.938616,793.193207 C495.096604,791.622754 497.454128,790.83568 500.01489,790.83568 C501.803363,790.83568 503.251876,791.437993 504.360429,792.63893 C505.472682,793.839864 506.026959,795.336413 506.026959,797.124883 L506.026959,811.225712 Z M527.677054,800.731384 C527.677054,803.750353 526.904761,806.263079 525.363868,808.269565 C523.667779,810.516237 521.32503,811.643268 518.335623,811.643268 C515.372086,811.643268 513.062596,810.516237 511.396066,808.269565 C509.884735,806.263079 509.130916,803.750353 509.130916,800.731384 C509.130916,797.893483 509.947553,795.506393 511.580824,793.562726 C513.306479,791.500811 515.575322,790.466161 518.379963,790.466161 C521.184612,790.466161 523.468233,791.500811 525.227147,793.562726 C526.860413,795.506393 527.677054,797.893483 527.677054,800.731384 Z M523.978169,800.709214 C523.978169,798.588177 523.575398,796.836659 522.773539,795.450964 C521.820184,793.762265 520.338416,792.871724 518.335623,792.779344 C514.633049,792.993668 512.785458,795.646811 512.785458,800.731384 C512.785458,803.063048 513.169754,805.010409 513.94574,806.573472 C514.936053,808.565177 516.421518,809.548098 518.402137,809.514843 C522.119493,809.48528 523.978169,806.551302 523.978169,800.709214 Z M547.039822,811.225712 L543.662423,811.225712 L543.662423,797.450061 C543.662423,795.93873 543.207916,794.759967 542.298902,793.910071 C541.389884,793.063874 540.177865,792.653708 538.666534,792.686967 C537.062826,792.71653 535.53671,793.241243 534.088201,794.257419 L534.088201,811.225712 L530.710801,811.225712 L530.710801,793.839864 C532.654469,792.42461 534.442938,791.500811 536.076205,791.068474 C537.617103,790.6657 538.976931,790.466161 540.148306,790.466161 C540.950162,790.466161 541.703977,790.54376 542.413452,790.698955 C543.740026,791.005656 544.819016,791.574714 545.650435,792.409829 C546.577923,793.333624 547.039822,794.442181 547.039822,795.739188 L547.039822,811.225712 Z M553.616779,787.965017 L553.616779,784.251198 L552.214035,784.251198 L552.214035,783.80853 L555.611667,783.80853 L555.611667,784.251198 L554.208924,784.251198 L554.208924,787.965017 L553.616779,787.965017 Z M556.136707,787.965017 L556.136707,783.80853 L556.953056,783.80853 L558.019472,787.369424 L559.269883,783.80853 L560,783.80853 L560,787.965017 L559.4481,787.965017 L559.4481,784.584637 L558.303896,787.964591 L557.740662,787.964591 L556.642614,784.573139 L556.642614,787.965017 L556.136707,787.965017 Z M400.820071,780.189007 C402.557763,780.180933 404.369555,780.312984 406.115715,780.603655 C408.874197,781.063406 411.198112,783.132736 411.198112,785.887452 L411.198112,795.566516 C411.198113,798.404824 408.941936,800.731843 406.115715,800.731843 L395.962768,800.731843 C392.515607,800.731843 389.612734,803.69128 389.612734,807.046336 L389.612734,811.690391 L386.117845,811.690391 C383.163674,811.69039 381.438127,809.546203 380.715577,806.536911 C379.740888,802.494128 379.782285,800.07806 380.715577,796.206258 C381.524682,792.828406 384.111439,791.052779 387.065612,791.052779 L390.880371,791.052779 L401.045165,791.052779 L401.045165,789.761447 L390.880371,789.761447 L390.880371,785.887452 C390.880371,782.954154 391.661343,781.363575 395.962768,780.603655 C397.42292,780.345281 399.082378,780.197081 400.820071,780.189007 Z M395.323026,783.304789 C394.269308,783.304789 393.415646,784.176221 393.415646,785.24771 C393.415646,786.315401 394.269308,787.178783 395.323026,787.178784 C396.372979,787.178784 397.230405,786.315401 397.230406,785.24771 C397.230406,784.176221 396.372979,783.304789 395.323026,783.304789 Z M412.46575,791.052779 L416.280511,791.052779 C419.23844,791.052779 420.632828,793.265362 421.362904,796.206258 C422.378993,800.290837 422.424148,803.352839 421.362904,806.536911 C420.335529,809.629792 419.234683,811.690391 416.280511,811.690391 L411.198112,811.690391 L401.045165,811.690391 L401.045165,812.981723 L411.198112,812.981723 L411.198112,816.855716 C411.198113,819.789011 408.674743,821.280121 406.115715,822.021043 C402.265883,823.13813 399.180371,822.967145 395.962768,822.021043 C393.275789,821.230727 390.880371,819.610433 390.880371,816.855716 L390.880371,807.176654 C390.880371,804.391541 393.181706,802.011327 395.962768,802.011327 L406.115715,802.011327 C409.498902,802.011327 412.46575,799.065956 412.46575,795.566516 L412.46575,791.052779 Z M406.755457,815.564386 C405.705502,815.564386 404.848078,816.42777 404.848078,817.495459 C404.848078,818.566946 405.705503,819.43838 406.755457,819.43838 C407.809174,819.43838 408.662836,818.566946 408.662837,817.495459 C408.662837,816.42777 407.809176,815.564387 406.755457,815.564386 Z" id="logo2-copy"></path>
        </g>
    </g>
</svg>