<?xml version="1.0" encoding="UTF-8" standalone="no"?>
<svg width="42px" height="94px" viewBox="0 0 42 94" version="1.1" xmlns="http://www.w3.org/2000/svg" xmlns:xlink="http://www.w3.org/1999/xlink">
    <!-- Generator: sketchtool 40.1 (33804) - http://www.bohemiancoding.com/sketch -->
    <title>DB1214AC-CEB3-42DF-8F41-3BCA16F78D93</title>
    <desc>Created with sketchtool.</desc>
    <defs></defs>
    <g id="Componentes" stroke="none" stroke-width="1" fill="none" fill-rule="evenodd">
        <g transform="translate(-1194.000000, -831.000000)" id="ico_youtube">
            <g transform="translate(1193.454545, 831.753425)">
                <g id="Group-3">
                    <path d="M21.1807273,17.2119103 C21.3385455,17.2119103 21.462,17.1690328 21.5549091,17.0832777 C21.6478182,16.9975226 21.6949091,16.8764566 21.6949091,16.7263852 L21.6949091,13.661902 C21.6949091,13.5383138 21.6478182,13.4399477 21.5536364,13.3642814 C21.4581818,13.2873541 21.3347273,13.2507821 21.1807273,13.2507821 C21.0394545,13.2507821 20.9236364,13.2873541 20.8345455,13.3642814 C20.748,13.4399477 20.7034545,13.5383138 20.7034545,13.661902 L20.7034545,16.7263852 C20.7034545,16.881501 20.7454545,17.0000448 20.8269091,17.0832777 C20.9096364,17.171555 21.0267273,17.2119103 21.1807273,17.2119103" id="Fill-596" fill="#DB3539"></path>
                    <path d="M23.6829091,26.8442242 C23.6829091,27.0094288 23.6536364,27.1254504 23.5950909,27.1973333 C23.5352727,27.2704774 23.4436364,27.3070494 23.3163636,27.3070494 C23.2298182,27.3070494 23.1483636,27.2881328 23.0681818,27.2515608 C22.9892727,27.2162499 22.9065455,27.1519336 22.8238182,27.0712229 L22.8238182,23.889457 C22.8938182,23.8175741 22.9638182,23.7658688 23.0363636,23.731819 C23.1076364,23.6990303 23.1814545,23.6813748 23.254,23.6813748 C23.3927273,23.6813748 23.5009091,23.7267746 23.5747273,23.8150519 C23.6485455,23.9033292 23.6829091,24.034484 23.6829091,24.2085164 L23.6829091,26.8442242 L23.6829091,26.8442242 Z M23.7401818,22.871746 C23.5798182,22.871746 23.422,22.9108402 23.2641818,22.992812 C23.1101818,23.0735226 22.9625455,23.1945886 22.8238182,23.3471822 L22.8238182,21.11755 L21.7814545,21.11755 L21.7814545,28.041012 L22.8238182,28.041012 L22.8238182,27.6500697 C22.9574545,27.8077078 23.1063636,27.9212071 23.2641818,27.9943512 C23.4207273,28.0712785 23.6001818,28.1053284 23.8025455,28.1053284 C24.1067273,28.1053284 24.3421818,28.0120066 24.5025455,27.8177966 C24.6654545,27.6223254 24.7443636,27.3474047 24.7443636,26.98799 L24.7443636,24.1530278 C24.7443636,23.7330801 24.6603636,23.416543 24.4872727,23.1971108 C24.3154545,22.9802009 24.0672727,22.871746 23.7401818,22.871746 L23.7401818,22.871746 Z" id="Fill-597" fill="#DB3539"></path>
                    <polyline id="Fill-598" fill="#DB3539" points="14.0496364 22.1251723 15.2498182 22.1251723 15.2498182 28.041012 16.4118182 28.041012 16.4118182 22.1251723 17.6132727 22.1251723 17.6132727 21.11755 14.0496364 21.11755 14.0496364 22.1251723"></polyline>
                    <path d="M19.9767273,26.8126966 C19.88,26.9236737 19.7743636,27.0144732 19.6572727,27.0888784 C19.5414545,27.1595002 19.4447273,27.1948111 19.3709091,27.1948111 C19.2754545,27.1948111 19.2041818,27.169589 19.1596364,27.1128394 C19.1176364,27.0586119 19.096,26.9728568 19.096,26.8517908 L19.096,22.9335401 L18.0650909,22.9335401 L18.0650909,27.2036389 C18.0650909,27.5100872 18.1261818,27.7333026 18.2458182,27.8858962 C18.368,28.041012 18.5449091,28.1154172 18.7854545,28.1154172 C18.9776364,28.1154172 19.1774545,28.0637119 19.3823636,27.9527347 C19.5898182,27.8442798 19.7870909,27.6866418 19.9767273,27.4798207 L19.9767273,28.041012 L21.0076364,28.041012 L21.0076364,22.9335401 L19.9767273,22.9335401 L19.9767273,26.8126966" id="Fill-599" fill="#DB3539"></path>
                    <path d="M31.542,26.467154 C31.542,28.5025762 29.876,30.1546227 27.8218182,30.1546227 L14.8972727,30.1546227 C12.8430909,30.1546227 11.1783636,28.5025762 11.1783636,26.467154 L11.1783636,23.5048203 C11.1783636,21.4706592 12.8430909,19.8173516 14.8972727,19.8173516 L27.8218182,19.8173516 C29.876,19.8173516 31.542,21.4706592 31.542,23.5048203 L31.542,26.467154 L31.542,26.467154 Z M16.3507273,10.4183421 L17.1983636,13.467692 L17.2798182,13.467692 L18.0892727,10.4183421 L19.4154545,10.4183421 L17.8958182,14.8813898 L17.8958182,18.0442391 L16.59,18.0442391 L16.59,15.0213724 L15.0347273,10.4183421 L16.3507273,10.4183421 L16.3507273,10.4183421 Z M19.5096364,13.7035185 C19.5096364,13.2684375 19.6661818,12.9203728 19.9767273,12.6643686 C20.2885455,12.4058423 20.7098182,12.2772096 21.238,12.2772096 C21.7165455,12.2772096 22.1098182,12.4134089 22.4178182,12.6845463 C22.7232727,12.9556837 22.876,13.310054 22.876,13.7363072 L22.876,16.6418912 C22.876,17.1248941 22.7258182,17.4994421 22.4267273,17.7756239 C22.1250909,18.0492835 21.7114545,18.1867439 21.1845455,18.1867439 C20.6767273,18.1867439 20.2707273,18.0442391 19.9665455,17.7604907 C19.6623636,17.4780033 19.5096364,17.098411 19.5096364,16.6204525 L19.5096364,13.7035185 L19.5096364,13.7035185 Z M23.8165455,12.4184533 L24.9747273,12.4184533 L24.9747273,16.7314296 C24.9747273,16.8638456 25.0027273,16.9596895 25.0498182,17.0189614 C25.0969091,17.0807555 25.1770909,17.111022 25.2852727,17.111022 C25.3705455,17.111022 25.48,17.0706667 25.6098182,16.9924782 C25.7396364,16.9105064 25.858,16.8121403 25.9661818,16.6898132 L25.9661818,12.4184533 L27.1269091,12.4184533 L27.1269091,18.0442391 L25.9661818,18.0442391 L25.9661818,17.4212536 C25.7536364,17.6495135 25.5321818,17.8273292 25.2992727,17.945873 C25.0676364,18.0631557 24.8449091,18.127472 24.6272727,18.127472 C24.3574545,18.127472 24.1563636,18.0417169 24.0201818,17.8714678 C23.8852727,17.7062632 23.8165455,17.4553034 23.8165455,17.1198497 L23.8165455,12.4184533 L23.8165455,12.4184533 Z M21.3601818,0.107554172 C10.1143636,0.107554172 0.996545455,9.14210461 0.996545455,20.2852213 C0.996545455,31.4308601 10.1143636,40.4628883 21.3601818,40.4628883 C32.6072727,40.4628883 41.7238182,31.4308601 41.7238182,20.2852213 C41.7238182,9.14210461 32.6072727,0.107554172 21.3601818,0.107554172 L21.3601818,0.107554172 Z" id="Fill-600" fill="#DB3539"></path>
                    <path d="M27.258,24.8151075 L26.3467273,24.8151075 L26.3467273,24.300577 C26.3467273,24.0861893 26.3823636,23.9310735 26.4536364,23.8415351 C26.5261818,23.7456912 26.6432727,23.6990303 26.8074545,23.6990303 C26.964,23.6990303 27.0798182,23.7456912 27.1498182,23.8415351 C27.2210909,23.9310735 27.258,24.0861893 27.258,24.300577 L27.258,24.8151075 L27.258,24.8151075 Z M26.8507273,22.8074296 C26.3887273,22.8074296 26.0145455,22.94489 25.7230909,23.223594 C25.4303636,23.502298 25.2852727,23.8667572 25.2852727,24.3081436 L25.2852727,26.6008311 C25.2852727,27.0939228 25.4201818,27.4798207 25.6836364,27.7585247 C25.9483636,28.041012 26.3123636,28.1797335 26.7730909,28.1797335 C27.286,28.1797335 27.6729091,28.0485787 27.9287273,27.7850079 C28.1896364,27.5189149 28.3181818,27.1254504 28.3181818,26.6008311 L28.3181818,26.3397825 L27.258,26.3397825 L27.258,26.5705645 C27.258,26.8719685 27.2223636,27.0661785 27.1561818,27.1544558 C27.0874545,27.2439942 26.9678182,27.2881328 26.7972727,27.2881328 C26.6330909,27.2881328 26.516,27.2364276 26.4472727,27.133017 C26.3810909,27.0270843 26.3467273,26.8391797 26.3467273,26.5705645 L26.3467273,25.6108643 L28.3181818,25.6108643 L28.3181818,24.3081436 C28.3181818,23.8226185 28.1909091,23.453115 27.9376364,23.1945886 C27.6856364,22.9360623 27.3229091,22.8074296 26.8507273,22.8074296 L26.8507273,22.8074296 Z" id="Fill-601" fill="#DB3539"></path>
                    <path d="M21.1807273,69.2119103 C21.3385455,69.2119103 21.462,69.1690328 21.5549091,69.0832777 C21.6478182,68.9975226 21.6949091,68.8764566 21.6949091,68.7263852 L21.6949091,65.661902 C21.6949091,65.5383138 21.6478182,65.4399477 21.5536364,65.3642814 C21.4581818,65.2873541 21.3347273,65.2507821 21.1807273,65.2507821 C21.0394545,65.2507821 20.9236364,65.2873541 20.8345455,65.3642814 C20.748,65.4399477 20.7034545,65.5383138 20.7034545,65.661902 L20.7034545,68.7263852 C20.7034545,68.881501 20.7454545,69.0000448 20.8269091,69.0832777 C20.9096364,69.171555 21.0267273,69.2119103 21.1807273,69.2119103" id="Fill-596" fill="#00B394"></path>
                    <path d="M23.6829091,78.8442242 C23.6829091,79.0094288 23.6536364,79.1254504 23.5950909,79.1973333 C23.5352727,79.2704774 23.4436364,79.3070494 23.3163636,79.3070494 C23.2298182,79.3070494 23.1483636,79.2881328 23.0681818,79.2515608 C22.9892727,79.2162499 22.9065455,79.1519336 22.8238182,79.0712229 L22.8238182,75.889457 C22.8938182,75.8175741 22.9638182,75.7658688 23.0363636,75.731819 C23.1076364,75.6990303 23.1814545,75.6813748 23.254,75.6813748 C23.3927273,75.6813748 23.5009091,75.7267746 23.5747273,75.8150519 C23.6485455,75.9033292 23.6829091,76.034484 23.6829091,76.2085164 L23.6829091,78.8442242 L23.6829091,78.8442242 Z M23.7401818,74.871746 C23.5798182,74.871746 23.422,74.9108402 23.2641818,74.992812 C23.1101818,75.0735226 22.9625455,75.1945886 22.8238182,75.3471822 L22.8238182,73.11755 L21.7814545,73.11755 L21.7814545,80.041012 L22.8238182,80.041012 L22.8238182,79.6500697 C22.9574545,79.8077078 23.1063636,79.9212071 23.2641818,79.9943512 C23.4207273,80.0712785 23.6001818,80.1053284 23.8025455,80.1053284 C24.1067273,80.1053284 24.3421818,80.0120066 24.5025455,79.8177966 C24.6654545,79.6223254 24.7443636,79.3474047 24.7443636,78.98799 L24.7443636,76.1530278 C24.7443636,75.7330801 24.6603636,75.416543 24.4872727,75.1971108 C24.3154545,74.9802009 24.0672727,74.871746 23.7401818,74.871746 L23.7401818,74.871746 Z" id="Fill-597" fill="#00B394"></path>
                    <polyline id="Fill-598" fill="#00B394" points="14.0496364 74.1251723 15.2498182 74.1251723 15.2498182 80.041012 16.4118182 80.041012 16.4118182 74.1251723 17.6132727 74.1251723 17.6132727 73.11755 14.0496364 73.11755 14.0496364 74.1251723"></polyline>
                    <path d="M19.9767273,78.8126966 C19.88,78.9236737 19.7743636,79.0144732 19.6572727,79.0888784 C19.5414545,79.1595002 19.4447273,79.1948111 19.3709091,79.1948111 C19.2754545,79.1948111 19.2041818,79.169589 19.1596364,79.1128394 C19.1176364,79.0586119 19.096,78.9728568 19.096,78.8517908 L19.096,74.9335401 L18.0650909,74.9335401 L18.0650909,79.2036389 C18.0650909,79.5100872 18.1261818,79.7333026 18.2458182,79.8858962 C18.368,80.041012 18.5449091,80.1154172 18.7854545,80.1154172 C18.9776364,80.1154172 19.1774545,80.0637119 19.3823636,79.9527347 C19.5898182,79.8442798 19.7870909,79.6866418 19.9767273,79.4798207 L19.9767273,80.041012 L21.0076364,80.041012 L21.0076364,74.9335401 L19.9767273,74.9335401 L19.9767273,78.8126966" id="Fill-599" fill="#00B394"></path>
                    <path d="M31.542,78.467154 C31.542,80.5025762 29.876,82.1546227 27.8218182,82.1546227 L14.8972727,82.1546227 C12.8430909,82.1546227 11.1783636,80.5025762 11.1783636,78.467154 L11.1783636,75.5048203 C11.1783636,73.4706592 12.8430909,71.8173516 14.8972727,71.8173516 L27.8218182,71.8173516 C29.876,71.8173516 31.542,73.4706592 31.542,75.5048203 L31.542,78.467154 L31.542,78.467154 Z M16.3507273,62.4183421 L17.1983636,65.467692 L17.2798182,65.467692 L18.0892727,62.4183421 L19.4154545,62.4183421 L17.8958182,66.8813898 L17.8958182,70.0442391 L16.59,70.0442391 L16.59,67.0213724 L15.0347273,62.4183421 L16.3507273,62.4183421 L16.3507273,62.4183421 Z M19.5096364,65.7035185 C19.5096364,65.2684375 19.6661818,64.9203728 19.9767273,64.6643686 C20.2885455,64.4058423 20.7098182,64.2772096 21.238,64.2772096 C21.7165455,64.2772096 22.1098182,64.4134089 22.4178182,64.6845463 C22.7232727,64.9556837 22.876,65.310054 22.876,65.7363072 L22.876,68.6418912 C22.876,69.1248941 22.7258182,69.4994421 22.4267273,69.7756239 C22.1250909,70.0492835 21.7114545,70.1867439 21.1845455,70.1867439 C20.6767273,70.1867439 20.2707273,70.0442391 19.9665455,69.7604907 C19.6623636,69.4780033 19.5096364,69.098411 19.5096364,68.6204525 L19.5096364,65.7035185 L19.5096364,65.7035185 Z M23.8165455,64.4184533 L24.9747273,64.4184533 L24.9747273,68.7314296 C24.9747273,68.8638456 25.0027273,68.9596895 25.0498182,69.0189614 C25.0969091,69.0807555 25.1770909,69.111022 25.2852727,69.111022 C25.3705455,69.111022 25.48,69.0706667 25.6098182,68.9924782 C25.7396364,68.9105064 25.858,68.8121403 25.9661818,68.6898132 L25.9661818,64.4184533 L27.1269091,64.4184533 L27.1269091,70.0442391 L25.9661818,70.0442391 L25.9661818,69.4212536 C25.7536364,69.6495135 25.5321818,69.8273292 25.2992727,69.945873 C25.0676364,70.0631557 24.8449091,70.127472 24.6272727,70.127472 C24.3574545,70.127472 24.1563636,70.0417169 24.0201818,69.8714678 C23.8852727,69.7062632 23.8165455,69.4553034 23.8165455,69.1198497 L23.8165455,64.4184533 L23.8165455,64.4184533 Z M21.3601818,52.1075542 C10.1143636,52.1075542 0.996545455,61.1421046 0.996545455,72.2852213 C0.996545455,83.4308601 10.1143636,92.4628883 21.3601818,92.4628883 C32.6072727,92.4628883 41.7238182,83.4308601 41.7238182,72.2852213 C41.7238182,61.1421046 32.6072727,52.1075542 21.3601818,52.1075542 L21.3601818,52.1075542 Z" id="Fill-600" fill="#00B394"></path>
                    <path d="M27.258,76.8151075 L26.3467273,76.8151075 L26.3467273,76.300577 C26.3467273,76.0861893 26.3823636,75.9310735 26.4536364,75.8415351 C26.5261818,75.7456912 26.6432727,75.6990303 26.8074545,75.6990303 C26.964,75.6990303 27.0798182,75.7456912 27.1498182,75.8415351 C27.2210909,75.9310735 27.258,76.0861893 27.258,76.300577 L27.258,76.8151075 L27.258,76.8151075 Z M26.8507273,74.8074296 C26.3887273,74.8074296 26.0145455,74.94489 25.7230909,75.223594 C25.4303636,75.502298 25.2852727,75.8667572 25.2852727,76.3081436 L25.2852727,78.6008311 C25.2852727,79.0939228 25.4201818,79.4798207 25.6836364,79.7585247 C25.9483636,80.041012 26.3123636,80.1797335 26.7730909,80.1797335 C27.286,80.1797335 27.6729091,80.0485787 27.9287273,79.7850079 C28.1896364,79.5189149 28.3181818,79.1254504 28.3181818,78.6008311 L28.3181818,78.3397825 L27.258,78.3397825 L27.258,78.5705645 C27.258,78.8719685 27.2223636,79.0661785 27.1561818,79.1544558 C27.0874545,79.2439942 26.9678182,79.2881328 26.7972727,79.2881328 C26.6330909,79.2881328 26.516,79.2364276 26.4472727,79.133017 C26.3810909,79.0270843 26.3467273,78.8391797 26.3467273,78.5705645 L26.3467273,77.6108643 L28.3181818,77.6108643 L28.3181818,76.3081436 C28.3181818,75.8226185 28.1909091,75.453115 27.9376364,75.1945886 C27.6856364,74.9360623 27.3229091,74.8074296 26.8507273,74.8074296 L26.8507273,74.8074296 Z" id="Fill-601" fill="#00B394"></path>
                </g>
            </g>
        </g>
    </g>
</svg>